<svg xmlns="http://www.w3.org/2000/svg" viewBox="0 0 1470 2740" width="1470" height="2740" xmlns:c2pa="http://c2pa.org/manifest"><metadata><c2pa:manifest>AAAWgmp1bWIAAAAeanVtZGMycGEAEQAQgAAAqgA4m3EDYzJwYQAAABZcanVtYgAAAEdqdW1kYzJtYQARABCAAACqADibcQN1cm46YzJwYToyM2RmZDZkMS0wZjg3LTQ1MWMtOTdlNy02MTI0OGMwYjlkZTAAAAADl2p1bWIAAAApanVtZGMyYXMAEQAQgAAAqgA4m3EDYzJwYS5hc3NlcnRpb25zAAAAALxqdW1iAAAARGp1bWRjYm9yABEAEIAAAKoAOJtxE2MycGEuaW5ncmVkaWVudC52MwAAAAAYYzJzaGc8hhfbX+WWTIPqaF43XNEAAABwY2JvcqNpZGM6Zm9ybWF0bWltYWdlL3N2Zyt4bWxqaW5zdGFuY2VJRHgseG1wOmlpZDo0MjE0MjA2Mi1hYmI4LTRhNTUtYjI4YS1iY2M0YTMzYTM2M2VscmVsYXRpb25zaGlwaHBhcmVudE9mAAAB4mp1bWIAAABBanVtZGNib3IAEQAQgAAAqgA4m3ETYzJwYS5hY3Rpb25zLnYyAAAAABhjMnNos3JIKHJBAhsdsf4amH2WeQAAAZljYm9yomdhY3Rpb25zgqJmYWN0aW9ua2MycGEub3BlbmVkanBhcmFtZXRlcnOha2luZ3JlZGllbnRzgaJjdXJseC1zZWxmI2p1bWJmPWMycGEuYXNzZXJ0aW9ucy9jMnBhLmluZ3JlZGllbnQudjNkaGFzaFggTL1e1NIQcBCyYTqqZXyxzURDVYIcmcp6Ql1TU0ZQRoKkZmFjdGlvbngdY29tLmFudGhyb3BpYy5jbGF1ZGUucHJvdmlkZWRqcGFyYW1ldGVyc6F4H2NvbS5hbnRocm9waWMub3JpZ2luLWNvbmZpZGVuY2VndW5rbm93bmtkZXNjcmlwdGlvbnhmQ2xhdWRlIHByb3ZpZGVkIHRoaXMgZmlsZSBhdCB0aGUgcmVxdWVzdCBvZiBhIHVzZXIgYW5kIG1heSBoYXZlIGNyZWF0ZWQgb3IgbW9kaWZpZWQgdGhlIGZpbGUgY29udGVudHMubXNvZnR3YXJlQWdlbnShZG5hbWVmQ2xhdWRlcmFsbEFjdGlvbnNJbmNsdWRlZPUAAADIanVtYgAAAEBqdW1kY2JvcgARABCAAACqADibcRNjMnBhLmhhc2guZGF0YQAAAAAYYzJzaBK9hUJw3qHwMfr7l7E/0I0AAACAY2JvcqVjYWxnZnNoYTI1NmNwYWRNAAAAAAAAAAAAAAAAAGRoYXNoWCBBjs3Qt4bmlmSza5GCcfEcHoU4hP/yd60KXk9zwIyOoGRuYW1lbmp1bWJmIG1hbmlmZXN0amV4Y2x1c2lvbnOBomVzdGFydBiaZmxlbmd0aBkeBAAAAj5qdW1iAAAAJ2p1bWRjMmNsABEAEIAAAKoAOJtxA2MycGEuY2xhaW0udjIAAAACD2Nib3KlY2FsZ2ZzaGEyNTZpc2lnbmF0dXJleE1zZWxmI2p1bWJmPS9jMnBhL3VybjpjMnBhOjIzZGZkNmQxLTBmODctNDUxYy05N2U3LTYxMjQ4YzBiOWRlMC9jMnBhLnNpZ25hdHVyZWppbnN0YW5jZUlEeCx4bXA6aWlkOmRhYjI5OGRhLTg0MjItNDFiYi05ZTZkLTYyYzlkYzlhYzNjOXJjcmVhdGVkX2Fzc2VydGlvbnODomN1cmx4LXNlbGYjanVtYmY9YzJwYS5hc3NlcnRpb25zL2MycGEuaW5ncmVkaWVudC52M2RoYXNoWCBMvV7U0hBwELJhOqplfLHNRENVghyZynpCXVNTRlBGgqJjdXJseCpzZWxmI2p1bWJmPWMycGEuYXNzZXJ0aW9ucy9jMnBhLmFjdGlvbnMudjJkaGFzaFgg7xWB7bZbcotCF+3f29YsuhP/0GbqrfRsuFhoefPGaqGiY3VybHgpc2VsZiNqdW1iZj1jMnBhLmFzc2VydGlvbnMvYzJwYS5oYXNoLmRhdGFkaGFzaFggzmNAriNnJTMzroINxxvQGHrJxeo2W1PQka5/nqwHITd0Y2xhaW1fZ2VuZXJhdG9yX2luZm+jZG5hbWVvQW50aHJvcGljIEZpbGVzZ3ZlcnNpb25lMS4wLjBrc3BlY1ZlcnNpb25lMi40LjAAABA4anVtYgAAAChqdW1kYzJjcwARABCAAACqADibcQNjMnBhLnNpZ25hdHVyZQAAABAIY2JvctKEWQISogEmGCFZAgowggIGMIIBjaADAgECAhRA5aAK7sI50L64g/oGQgU9Z1UTADAKBggqhkjOPQQDAzBJMRcwFQYDVQQKEw5BbnRocm9waWMsIFBCQzEuMCwGA1UEAxMlQW50aHJvcGljIENvbnRlbnQgQ3JlZGVudGlhbHMgUm9vdCBDQTAeFw0yNjA4MDcxODQzNTZaFw0yODA4MDYxOTQzNTZaMEQxFzAVBgNVBAoTDkFudGhyb3BpYywgUEJDMSkwJwYDVQQDEyBBbnRocm9waWMgQ2xhdWRlIENvbnRlbnQgU2lnbmluZzBZMBMGByqGSM49AgEGCCqGSM49AwEHA0IABJh6CmvLUBgFFNU0vUKlOVtE6djd17L5SuwX0LemFisBM3dkd/3cyjxFA3Qo5S46fX0/ihY0VZ7mfb9KF703t5OjWDBWMA4GA1UdDwEB/wQEAwIHgDAVBgNVHSUEDjAMBgorBgEEAYPoXgIBMAwGA1UdEwEB/wQCMAAwHwYDVR0jBBgwFoAUzlHiBIFOZFsj+OPEz5o+nMHXXMIwCgYIKoZIzj0EAwMDZwAwZAIwMXMdFJ4BetLLVY7ORuE9noqbbAZOZn/aArXyTwFAZfKrPzxF2vPoJNf1+UCdg1XGAjBwX1zd9WGqYkqmL5SFqw1QySjr1zJfpJM9+1rdDwSPLMOPOjKuiXjoU/pUUeG9RwmhY3BhZFkNngAAAAAAAAAAAAAAAAAAAAAAAAAAAAAAAAAAAAAAAAAAAAAAAAAAAAAAAAAAAAAAAAAAAAAAAAAAAAAAAAAAAAAAAAAAAAAAAAAAAAAAAAAAAAAAAAAAAAAAAAAAAAAAAAAAAAAAAAAAAAAAAAAAAAAAAAAAAAAAAAAAAAAAAAAAAAAAAAAAAAAAAAAAAAAAAAAAAAAAAAAAAAAAAAAAAAAAAAAAAAAAAAAAAAAAAAAAAAAAAAAAAAAAAAAAAAAAAAAAAAAAAAAAAAAAAAAAAAAAAAAAAAAAAAAAAAAAAAAAAAAAAAAAAAAAAAAAAAAAAAAAAAAAAAAAAAAAAAAAAAAAAAAAAAAAAAAAAAAAAAAAAAAAAAAAAAAAAAAAAAAAAAAAAAAAAAAAAAAAAAAAAAAAAAAAAAAAAAAAAAAAAAAAAAAAAAAAAAAAAAAAAAAAAAAAAAAAAAAAAAAAAAAAAAAAAAAAAAAAAAAAAAAAAAAAAAAAAAAAAAAAAAAAAAAAAAAAAAAAAAAAAAAAAAAAAAAAAAAAAAAAAAAAAAAAAAAAAAAAAAAAAAAAAAAAAAAAAAAAAAAAAAAAAAAAAAAAAAAAAAAAAAAAAAAAAAAAAAAAAAAAAAAAAAAAAAAAAAAAAAAAAAAAAAAAAAAAAAAAAAAAAAAAAAAAAAAAAAAAAAAAAAAAAAAAAAAAAAAAAAAAAAAAAAAAAAAAAAAAAAAAAAAAAAAAAAAAAAAAAAAAAAAAAAAAAAAAAAAAAAAAAAAAAAAAAAAAAAAAAAAAAAAAAAAAAAAAAAAAAAAAAAAAAAAAAAAAAAAAAAAAAAAAAAAAAAAAAAAAAAAAAAAAAAAAAAAAAAAAAAAAAAAAAAAAAAAAAAAAAAAAAAAAAAAAAAAAAAAAAAAAAAAAAAAAAAAAAAAAAAAAAAAAAAAAAAAAAAAAAAAAAAAAAAAAAAAAAAAAAAAAAAAAAAAAAAAAAAAAAAAAAAAAAAAAAAAAAAAAAAAAAAAAAAAAAAAAAAAAAAAAAAAAAAAAAAAAAAAAAAAAAAAAAAAAAAAAAAAAAAAAAAAAAAAAAAAAAAAAAAAAAAAAAAAAAAAAAAAAAAAAAAAAAAAAAAAAAAAAAAAAAAAAAAAAAAAAAAAAAAAAAAAAAAAAAAAAAAAAAAAAAAAAAAAAAAAAAAAAAAAAAAAAAAAAAAAAAAAAAAAAAAAAAAAAAAAAAAAAAAAAAAAAAAAAAAAAAAAAAAAAAAAAAAAAAAAAAAAAAAAAAAAAAAAAAAAAAAAAAAAAAAAAAAAAAAAAAAAAAAAAAAAAAAAAAAAAAAAAAAAAAAAAAAAAAAAAAAAAAAAAAAAAAAAAAAAAAAAAAAAAAAAAAAAAAAAAAAAAAAAAAAAAAAAAAAAAAAAAAAAAAAAAAAAAAAAAAAAAAAAAAAAAAAAAAAAAAAAAAAAAAAAAAAAAAAAAAAAAAAAAAAAAAAAAAAAAAAAAAAAAAAAAAAAAAAAAAAAAAAAAAAAAAAAAAAAAAAAAAAAAAAAAAAAAAAAAAAAAAAAAAAAAAAAAAAAAAAAAAAAAAAAAAAAAAAAAAAAAAAAAAAAAAAAAAAAAAAAAAAAAAAAAAAAAAAAAAAAAAAAAAAAAAAAAAAAAAAAAAAAAAAAAAAAAAAAAAAAAAAAAAAAAAAAAAAAAAAAAAAAAAAAAAAAAAAAAAAAAAAAAAAAAAAAAAAAAAAAAAAAAAAAAAAAAAAAAAAAAAAAAAAAAAAAAAAAAAAAAAAAAAAAAAAAAAAAAAAAAAAAAAAAAAAAAAAAAAAAAAAAAAAAAAAAAAAAAAAAAAAAAAAAAAAAAAAAAAAAAAAAAAAAAAAAAAAAAAAAAAAAAAAAAAAAAAAAAAAAAAAAAAAAAAAAAAAAAAAAAAAAAAAAAAAAAAAAAAAAAAAAAAAAAAAAAAAAAAAAAAAAAAAAAAAAAAAAAAAAAAAAAAAAAAAAAAAAAAAAAAAAAAAAAAAAAAAAAAAAAAAAAAAAAAAAAAAAAAAAAAAAAAAAAAAAAAAAAAAAAAAAAAAAAAAAAAAAAAAAAAAAAAAAAAAAAAAAAAAAAAAAAAAAAAAAAAAAAAAAAAAAAAAAAAAAAAAAAAAAAAAAAAAAAAAAAAAAAAAAAAAAAAAAAAAAAAAAAAAAAAAAAAAAAAAAAAAAAAAAAAAAAAAAAAAAAAAAAAAAAAAAAAAAAAAAAAAAAAAAAAAAAAAAAAAAAAAAAAAAAAAAAAAAAAAAAAAAAAAAAAAAAAAAAAAAAAAAAAAAAAAAAAAAAAAAAAAAAAAAAAAAAAAAAAAAAAAAAAAAAAAAAAAAAAAAAAAAAAAAAAAAAAAAAAAAAAAAAAAAAAAAAAAAAAAAAAAAAAAAAAAAAAAAAAAAAAAAAAAAAAAAAAAAAAAAAAAAAAAAAAAAAAAAAAAAAAAAAAAAAAAAAAAAAAAAAAAAAAAAAAAAAAAAAAAAAAAAAAAAAAAAAAAAAAAAAAAAAAAAAAAAAAAAAAAAAAAAAAAAAAAAAAAAAAAAAAAAAAAAAAAAAAAAAAAAAAAAAAAAAAAAAAAAAAAAAAAAAAAAAAAAAAAAAAAAAAAAAAAAAAAAAAAAAAAAAAAAAAAAAAAAAAAAAAAAAAAAAAAAAAAAAAAAAAAAAAAAAAAAAAAAAAAAAAAAAAAAAAAAAAAAAAAAAAAAAAAAAAAAAAAAAAAAAAAAAAAAAAAAAAAAAAAAAAAAAAAAAAAAAAAAAAAAAAAAAAAAAAAAAAAAAAAAAAAAAAAAAAAAAAAAAAAAAAAAAAAAAAAAAAAAAAAAAAAAAAAAAAAAAAAAAAAAAAAAAAAAAAAAAAAAAAAAAAAAAAAAAAAAAAAAAAAAAAAAAAAAAAAAAAAAAAAAAAAAAAAAAAAAAAAAAAAAAAAAAAAAAAAAAAAAAAAAAAAAAAAAAAAAAAAAAAAAAAAAAAAAAAAAAAAAAAAAAAAAAAAAAAAAAAAAAAAAAAAAAAAAAAAAAAAAAAAAAAAAAAAAAAAAAAAAAAAAAAAAAAAAAAAAAAAAAAAAAAAAAAAAAAAAAAAAAAAAAAAAAAAAAAAAAAAAAAAAAAAAAAAAAAAAAAAAAAAAAAAAAAAAAAAAAAAAAAAAAAAAAAAAAAAAAAAAAAAAAAAAAAAAAAAAAAAAAAAAAAAAAAAAAAAAAAAAAAAAAAAAAAAAAAAAAAAAAAAAAAAAAAAAAAAAAAAAAAAAAAAAAAAAAAAAAAAAAAAAAAAAAAAAAAAAAAAAAAAAAAAAAAAAAAAAAAAAAAAAAAAAAAAAAAAAAAAAAAAAAAAAAAAAAAAAAAAAAAAAAAAAAAAAAAAAAAAAAAAAAAAAAAAAAAAAAAAAAAAAAAAAAAAAAAAAAAAAAAAAAAAAAAAAAAAAAAAAAAAAAAAAAAAAAAAAAAAAAAAAAAAAAAAAAAAAAAAAAAAAAAAAAAAAAAAAAAAAAAAAAAAAAAAAAAAAAAAAAAAAAAAAAAAAAAAAAAAAAAAAAAAAAAAAAAAAAAAAAAAAAAAAAAAAAAAAAAAAAAAAAAAAAAAAAAAAAAAAAAAAAAAAAAAAAAAAAAAAAAAAAAAAAAAAAAAAAAAAAAAAAAAAAAAAAAAAAAAAAAAAAAAAAAAAAAAAAAAAAAAAAAAAAAAAAAAAAAAAAAAAAAAAAAAAAAAAAAAAAAAAAAAAAAAAAAAAAAAAAAAAAAAAAAAAAAAAAAAAAAAAAAAAAAAAAAAAAAAAAAAAAAAAAAAAAAAAAAAAAAAAAAAAAAAAAAAAAAAAAAAAAAAAAAAAAAAAAAAAAAAAAAAAAAAAAAAAAAAAAAAAAAAAAAAAAAAAAAAAAAAAAAAAAAAAAAAAAAAAAAAAAAAAAAAAAAAAAAAAAAAAAAAAAAAAAAAAAAAAAAAAAAAAAAAAAAAAAAAAAAAAAAAAAAAAAAAAAAAAAAAAAAAAAAAAAAAAAAAAAAAAAAAAAAAAAAAAAAAAAAAAAAAAAAAAAAAAAAAAAAAAAAAAAAAAAAAAAAAAAAAAAAAAAAAAAAAAAAAAAAAAAAAAAAAAAAAAAAAAAAAAAAAAAAAAAAAAAAAAAAAAAAAAAAAAAAAAAAAAAAAAAAAAAAAAAAAAAAAAAAAAAAAAAAAAAAAAAAAAAAAAAAAAAAAAAAAAAAAAAAAAAAAAAAAAAAAAAAAAAAAAAAAAAAAAAAAAAAAAAAAAAAAAAAAAAAAAAAAAAAAAAAAAAAAAAAAAAAAAAAAAAAAAAAAAAAAAAAAAAAAAAAAAAAAAAAAAAAAAAAAAAAAAAAAAAAAAAAAAAAAAAAAAAAAAAAAAAAAAAAAAAAAAAAAAAAAAAAAAAAAAAAAAAAAAAAAAAAAAAAAAAAAAAAAAAAAAAAAAAAAAAAAAAAAAAAAAAAAAAAAAAAAAAAAAAAAAAAAAAAAAAAAAAAAAAAAAAAAAAAAAAAAAAAAAAAAAAAAAAAAAAAAAAAAAAAAAAAAAAAAAAAAAAAAAAAAAAAAAAAAAAAAAAAAAAAAAAAAAAAAAAAAAAAAAAAAAAAAAAAAAAAAAAAAAAAAAAAAAAAAAAAAAAAAAAAAAAAAAAAAAAAAAAAAAAAAAAAAAAAAAAAAAAAAAAAAAAAAAAAAAAAAAAAAAAAAAAAAAAAAAAAPZYQAAmP7PiNw3SDBbE13vLoKKYUhMhBmGjsmR9H4vMvKvH7VbZKiv5+wpl7nTohnbnlZuEJz5/8Wkxyc05NX4ZO1c=</c2pa:manifest></metadata><defs>
<linearGradient id="rail" x1="0" y1="-100" x2="0" y2="1370" gradientUnits="userSpaceOnUse"><stop offset="0" stop-color="#6A4428"/><stop offset=".5" stop-color="#4C2F1B"/><stop offset="1" stop-color="#341F10"/></linearGradient>
<radialGradient id="felt" cx="1270" cy="635" r="1480" gradientUnits="userSpaceOnUse"><stop offset="0" stop-color="#36745C"/><stop offset=".55" stop-color="#2C614C"/><stop offset="1" stop-color="#1B3F31"/></radialGradient>
<radialGradient id="hole"><stop offset="0" stop-color="#000"/><stop offset=".78" stop-color="#06080A"/><stop offset="1" stop-color="#1C1610"/></radialGradient>
<radialGradient id="shade" cx=".38" cy=".34" r=".78"><stop offset="0" stop-color="#fff" stop-opacity=".5"/><stop offset=".3" stop-color="#fff" stop-opacity=".1"/><stop offset=".72" stop-color="#000" stop-opacity="0"/><stop offset="1" stop-color="#000" stop-opacity=".4"/></radialGradient>
<radialGradient id="shadeR" cx=".66" cy=".38" r=".78"><stop offset="0" stop-color="#fff" stop-opacity=".5"/><stop offset=".3" stop-color="#fff" stop-opacity=".1"/><stop offset=".72" stop-color="#000" stop-opacity="0"/><stop offset="1" stop-color="#000" stop-opacity=".4"/></radialGradient>
<radialGradient id="shadow"><stop offset="0" stop-color="#000" stop-opacity=".5"/><stop offset=".7" stop-color="#000" stop-opacity=".25"/><stop offset="1" stop-color="#000" stop-opacity="0"/></radialGradient>
<clipPath id="bc" clipPathUnits="objectBoundingBox"><circle cx=".5" cy=".5" r=".5"/></clipPath>
</defs><g transform="translate(100 2640) rotate(-90)"><rect x="-100" y="-100" width="2740" height="1470" rx="60" fill="url(#rail)"/>
<rect x="-98.5" y="-98.5" width="2737" height="1467" rx="58.5" fill="none" stroke="#000" stroke-opacity=".55" stroke-width="3"/>
<rect x="-52" y="-52" width="2644" height="1374" rx="10" fill="none" stroke="#FFE2B4" stroke-opacity=".12" stroke-width="3"/>
<rect x="-45" y="-45" width="2630" height="1360" fill="url(#felt)"/>
<circle cx="1.1" cy="1.1" r="65.9" fill="url(#hole)" stroke="#000" stroke-opacity=".6" stroke-width="4"/>
<circle cx="1270" cy="-18.4" r="72.3" fill="url(#hole)" stroke="#000" stroke-opacity=".6" stroke-width="4"/>
<circle cx="2538.9" cy="1.1" r="65.9" fill="url(#hole)" stroke="#000" stroke-opacity=".6" stroke-width="4"/>
<circle cx="1.1" cy="1268.9" r="65.9" fill="url(#hole)" stroke="#000" stroke-opacity=".6" stroke-width="4"/>
<circle cx="1270" cy="1288.3" r="72.3" fill="url(#hole)" stroke="#000" stroke-opacity=".6" stroke-width="4"/>
<circle cx="2538.9" cy="1268.9" r="65.9" fill="url(#hole)" stroke="#000" stroke-opacity=".6" stroke-width="4"/>
<polygon points="81.9,0 1205.7,0 1216.9,-45 24.3,-45" fill="#1F4B3A"/>
<line x1="81.9" y1="0" x2="1205.7" y2="0" stroke="#fff" stroke-opacity=".10" stroke-width="2.5"/>
<polygon points="1334.3,0 2458.1,0 2515.7,-45 1323.1,-45" fill="#1F4B3A"/>
<line x1="1334.3" y1="0" x2="2458.1" y2="0" stroke="#fff" stroke-opacity=".10" stroke-width="2.5"/>
<polygon points="81.9,1270 1205.7,1270 1216.9,1315 24.3,1315" fill="#1F4B3A"/>
<line x1="81.9" y1="1270" x2="1205.7" y2="1270" stroke="#fff" stroke-opacity=".10" stroke-width="2.5"/>
<polygon points="1334.3,1270 2458.1,1270 2515.7,1315 1323.1,1315" fill="#1F4B3A"/>
<line x1="1334.3" y1="1270" x2="2458.1" y2="1270" stroke="#fff" stroke-opacity=".10" stroke-width="2.5"/>
<polygon points="0,81.9 0,1188.1 -45,1245.7 -45,24.3" fill="#1F4B3A"/>
<line x1="0" y1="81.9" x2="0" y2="1188.1" stroke="#fff" stroke-opacity=".10" stroke-width="2.5"/>
<polygon points="2540,81.9 2540,1188.1 2585,1245.7 2585,24.3" fill="#1F4B3A"/>
<line x1="2540" y1="81.9" x2="2540" y2="1188.1" stroke="#fff" stroke-opacity=".10" stroke-width="2.5"/>
<polygon points="306.5,-72.5 317.5,-79.5 328.5,-72.5 317.5,-65.5" fill="#E6D7B4" fill-opacity=".9"/>
<polygon points="306.5,1342.5 317.5,1335.5 328.5,1342.5 317.5,1349.5" fill="#E6D7B4" fill-opacity=".9"/>
<polygon points="624,-72.5 635,-79.5 646,-72.5 635,-65.5" fill="#E6D7B4" fill-opacity=".9"/>
<polygon points="624,1342.5 635,1335.5 646,1342.5 635,1349.5" fill="#E6D7B4" fill-opacity=".9"/>
<polygon points="941.5,-72.5 952.5,-79.5 963.5,-72.5 952.5,-65.5" fill="#E6D7B4" fill-opacity=".9"/>
<polygon points="941.5,1342.5 952.5,1335.5 963.5,1342.5 952.5,1349.5" fill="#E6D7B4" fill-opacity=".9"/>
<polygon points="1576.5,-72.5 1587.5,-79.5 1598.5,-72.5 1587.5,-65.5" fill="#E6D7B4" fill-opacity=".9"/>
<polygon points="1576.5,1342.5 1587.5,1335.5 1598.5,1342.5 1587.5,1349.5" fill="#E6D7B4" fill-opacity=".9"/>
<polygon points="1894,-72.5 1905,-79.5 1916,-72.5 1905,-65.5" fill="#E6D7B4" fill-opacity=".9"/>
<polygon points="1894,1342.5 1905,1335.5 1916,1342.5 1905,1349.5" fill="#E6D7B4" fill-opacity=".9"/>
<polygon points="2211.5,-72.5 2222.5,-79.5 2233.5,-72.5 2222.5,-65.5" fill="#E6D7B4" fill-opacity=".9"/>
<polygon points="2211.5,1342.5 2222.5,1335.5 2233.5,1342.5 2222.5,1349.5" fill="#E6D7B4" fill-opacity=".9"/>
<polygon points="-79.5,317.5 -72.5,306.5 -65.5,317.5 -72.5,328.5" fill="#E6D7B4" fill-opacity=".9"/>
<polygon points="2605.5,317.5 2612.5,306.5 2619.5,317.5 2612.5,328.5" fill="#E6D7B4" fill-opacity=".9"/>
<polygon points="-79.5,635 -72.5,624 -65.5,635 -72.5,646" fill="#E6D7B4" fill-opacity=".9"/>
<polygon points="2605.5,635 2612.5,624 2619.5,635 2612.5,646" fill="#E6D7B4" fill-opacity=".9"/>
<polygon points="-79.5,952.5 -72.5,941.5 -65.5,952.5 -72.5,963.5" fill="#E6D7B4" fill-opacity=".9"/>
<polygon points="2605.5,952.5 2612.5,941.5 2619.5,952.5 2612.5,963.5" fill="#E6D7B4" fill-opacity=".9"/>
<line x1="635" y1="0" x2="635" y2="1270" stroke="#fff" stroke-opacity=".14" stroke-width="2"/>
<circle cx="635" cy="635" r="4" fill="#fff" fill-opacity=".35"/>
<circle cx="1905" cy="635" r="4" fill="#fff" fill-opacity=".35"/>
<g opacity="1">
<line x1="747.1" y1="750.9" x2="1802.1" y2="395.3" stroke="#FFFFFF" stroke-opacity=".78" stroke-width="3" stroke-dasharray="20 14" stroke-linecap="round"/>
<circle cx="1829.2" cy="386.2" r="28.6" fill="#FFFFFF" fill-opacity=".06" stroke="#FFFFFF" stroke-opacity=".78" stroke-width="3"/>
<line x1="1905.4" y1="346.9" x2="2172.1" y2="209.5" stroke="#E3B25C" stroke-opacity=".95" stroke-width="4" stroke-linecap="round"/>
<polyline points="2161.6,228.4 2172.1,209.5 2150.6,207.1" fill="none" stroke="#E3B25C" stroke-opacity=".95" stroke-width="4" stroke-linecap="round" stroke-linejoin="round"/>
<line x1="1842.3" y1="411.6" x2="1911" y2="544.9" stroke="#FFFFFF" stroke-opacity=".5" stroke-width="3" stroke-dasharray="10 10" stroke-linecap="round"/>
</g>
<ellipse cx="711" cy="766" rx="30.9" ry="30.9" fill="url(#shadow)"/>
<circle cx="720" cy="760" r="28.6" fill="#F4EFE2"/>
<circle cx="720" cy="760" r="28.6" fill="url(#shadeR)"/>
<ellipse cx="732" cy="749.1" rx="4" ry="5.7" fill="#fff" fill-opacity=".7"/>
<circle cx="720" cy="760" r="27.8" fill="none" stroke="#000" stroke-opacity=".35" stroke-width="1.5"/>
<ellipse cx="1411" cy="986" rx="30.9" ry="30.9" fill="url(#shadow)"/>
<circle cx="1420" cy="980" r="28.6" fill="#F2C12E"/>
<circle cx="1420" cy="980" r="28.6" fill="url(#shadeR)"/>
<ellipse cx="1432" cy="969.1" rx="4" ry="5.7" fill="#fff" fill-opacity=".7"/>
<circle cx="1420" cy="980" r="27.8" fill="none" stroke="#000" stroke-opacity=".35" stroke-width="1.5"/>
<ellipse cx="1871" cy="366" rx="30.9" ry="30.9" fill="url(#shadow)"/>
<circle cx="1880" cy="360" r="28.6" fill="#CC3326"/>
<circle cx="1880" cy="360" r="28.6" fill="url(#shadeR)"/>
<ellipse cx="1892" cy="349.1" rx="4" ry="5.7" fill="#fff" fill-opacity=".7"/>
<circle cx="1880" cy="360" r="27.8" fill="none" stroke="#000" stroke-opacity=".35" stroke-width="1.5"/>
<ellipse cx="2241" cy="1056" rx="30.9" ry="30.9" fill="url(#shadow)"/>
<circle cx="2250" cy="1050" r="28.6" fill="#5B3592"/>
<circle cx="2250" cy="1050" r="28.6" fill="url(#shadeR)"/>
<ellipse cx="2262" cy="1039.1" rx="4" ry="5.7" fill="#fff" fill-opacity=".7"/>
<circle cx="2250" cy="1050" r="27.8" fill="none" stroke="#000" stroke-opacity=".35" stroke-width="1.5"/>
<ellipse cx="971" cy="266" rx="30.9" ry="30.9" fill="url(#shadow)"/>
<circle cx="980" cy="260" r="28.6" fill="#128A4C"/>
<circle cx="980" cy="260" r="28.6" fill="url(#shadeR)"/>
<ellipse cx="992" cy="249.1" rx="4" ry="5.7" fill="#fff" fill-opacity=".7"/>
<circle cx="980" cy="260" r="27.8" fill="none" stroke="#000" stroke-opacity=".35" stroke-width="1.5"/>
<ellipse cx="1896" cy="766" rx="30.9" ry="30.9" fill="url(#shadow)"/>
<circle cx="1905" cy="760" r="28.6" fill="#111316"/>
<circle cx="1905" cy="760" r="28.6" fill="url(#shadeR)"/>
<ellipse cx="1917" cy="749.1" rx="4" ry="5.7" fill="#fff" fill-opacity=".7"/>
<circle cx="1905" cy="760" r="27.8" fill="none" stroke="#000" stroke-opacity=".35" stroke-width="1.5"/>
<ellipse cx="1551" cy="646" rx="30.9" ry="30.9" fill="url(#shadow)"/>
<circle cx="1560" cy="640" r="28.6" fill="#F4EFE2"/>
<g clip-path="url(#bc)"><rect x="1531.4" y="611.4" width="57.1" height="57.1" fill="none"/><rect x="1543.4" y="611.4" width="33.1" height="57.1" fill="#F2C12E"/></g>
<circle cx="1560" cy="640" r="28.6" fill="url(#shadeR)"/>
<ellipse cx="1572" cy="629.1" rx="4" ry="5.7" fill="#fff" fill-opacity=".7"/>
<circle cx="1560" cy="640" r="27.8" fill="none" stroke="#000" stroke-opacity=".35" stroke-width="1.5"/>
<ellipse cx="2091" cy="606" rx="30.9" ry="30.9" fill="url(#shadow)"/>
<circle cx="2100" cy="600" r="28.6" fill="#F4EFE2"/>
<g clip-path="url(#bc)"><rect x="2071.4" y="571.4" width="57.1" height="57.1" fill="none"/><rect x="2083.4" y="571.4" width="33.1" height="57.1" fill="#1F4FB4"/></g>
<circle cx="2100" cy="600" r="28.6" fill="url(#shadeR)"/>
<ellipse cx="2112" cy="589.1" rx="4" ry="5.7" fill="#fff" fill-opacity=".7"/>
<circle cx="2100" cy="600" r="27.8" fill="none" stroke="#000" stroke-opacity=".35" stroke-width="1.5"/>
<ellipse cx="531" cy="1086" rx="30.9" ry="30.9" fill="url(#shadow)"/>
<circle cx="540" cy="1080" r="28.6" fill="#F4EFE2"/>
<g clip-path="url(#bc)"><rect x="511.4" y="1051.4" width="57.1" height="57.1" fill="none"/><rect x="523.4" y="1051.4" width="33.1" height="57.1" fill="#5B3592"/></g>
<circle cx="540" cy="1080" r="28.6" fill="url(#shadeR)"/>
<ellipse cx="552" cy="1069.1" rx="4" ry="5.7" fill="#fff" fill-opacity=".7"/>
<circle cx="540" cy="1080" r="27.8" fill="none" stroke="#000" stroke-opacity=".35" stroke-width="1.5"/>
<ellipse cx="2371" cy="306" rx="30.9" ry="30.9" fill="url(#shadow)"/>
<circle cx="2380" cy="300" r="28.6" fill="#F4EFE2"/>
<g clip-path="url(#bc)"><rect x="2351.4" y="271.4" width="57.1" height="57.1" fill="none"/><rect x="2363.4" y="271.4" width="33.1" height="57.1" fill="#128A4C"/></g>
<circle cx="2380" cy="300" r="28.6" fill="url(#shadeR)"/>
<ellipse cx="2392" cy="289.1" rx="4" ry="5.7" fill="#fff" fill-opacity=".7"/>
<circle cx="2380" cy="300" r="27.8" fill="none" stroke="#000" stroke-opacity=".35" stroke-width="1.5"/>
<ellipse cx="1241" cy="1156" rx="30.9" ry="30.9" fill="url(#shadow)"/>
<circle cx="1250" cy="1150" r="28.6" fill="#F4EFE2"/>
<g clip-path="url(#bc)"><rect x="1221.4" y="1121.4" width="57.1" height="57.1" fill="none"/><rect x="1233.4" y="1121.4" width="33.1" height="57.1" fill="#7E2232"/></g>
<circle cx="1250" cy="1150" r="28.6" fill="url(#shadeR)"/>
<ellipse cx="1262" cy="1139.1" rx="4" ry="5.7" fill="#fff" fill-opacity=".7"/>
<circle cx="1250" cy="1150" r="27.8" fill="none" stroke="#000" stroke-opacity=".35" stroke-width="1.5"/>
<circle cx="1420" cy="980" r="38.6" fill="none" stroke="#FFFFFF" stroke-opacity="0.55" stroke-width="3"/><circle cx="2250" cy="1050" r="38.6" fill="none" stroke="#FFFFFF" stroke-opacity="0.55" stroke-width="3"/><circle cx="980" cy="260" r="38.6" fill="none" stroke="#FFFFFF" stroke-opacity="0.55" stroke-width="3"/><circle cx="1880" cy="360" r="48.6" fill="none" stroke="#D9A441" stroke-opacity="0.22" stroke-width="8"/><circle cx="1880" cy="360" r="40.6" fill="none" stroke="#D9A441" stroke-opacity="1" stroke-width="5"/><g opacity="1">
<polygon points="622.1,804.6 -512.5,1195.4 -521.5,1168.9 618.3,793.2" fill="#000" fill-opacity=".28"/>
<linearGradient id="shaft" x1="634.2" y1="788.9" x2="-48.1" y2="1018.9" gradientUnits="userSpaceOnUse"><stop offset="0" stop-color="#EEE1C4"/><stop offset="1" stop-color="#C9A56C"/></linearGradient>
<polygon points="636.1,794.6 626.6,797.9 622.8,786.4 632.3,783.2" fill="#2F5F8A"/>
<polygon points="626.6,797.9 607.7,804.4 603.8,792.6 622.8,786.4" fill="#F2EEE3"/>
<polygon points="607.7,804.4 -44.7,1029.1 -51.6,1008.6 603.8,792.6" fill="url(#shaft)"/>
<polygon points="-44.7,1029.1 -58.9,1034 -65.8,1013.3 -51.6,1008.6" fill="#D8C59C"/>
<polygon points="-58.9,1034 -214.9,1087.7 -222.5,1065 -65.8,1013.3" fill="#6B4325"/>
<polygon points="-214.9,1087.7 -432.3,1162.6 -441,1137 -222.5,1065" fill="#1C1916"/>
<polygon points="-432.3,1162.6 -498.5,1185.4 -507.5,1158.9 -441,1137" fill="#2A1A0F"/>
<line x1="605.7" y1="798.5" x2="-427.2" y2="1146.6" stroke="#fff" stroke-opacity=".16" stroke-width="2"/>
</g></g></svg>